<?xml version="1.0" encoding="utf-8" standalone="no"?>
<!DOCTYPE svg PUBLIC "-//W3C//DTD SVG 1.1//EN"
  "http://www.w3.org/Graphics/SVG/1.1/DTD/svg11.dtd">
<svg xmlns:xlink="http://www.w3.org/1999/xlink" width="422.02212pt" height="178.00808pt" viewBox="0 0 422.02212 178.00808" xmlns="http://www.w3.org/2000/svg" version="1.1">
 <metadata>
  <rdf:RDF xmlns:dc="http://purl.org/dc/elements/1.1/" xmlns:cc="http://creativecommons.org/ns#" xmlns:rdf="http://www.w3.org/1999/02/22-rdf-syntax-ns#">
   <cc:Work>
    <dc:type rdf:resource="http://purl.org/dc/dcmitype/StillImage"/>
    <dc:date>2026-10-04T01:32:38.934399</dc:date>
    <dc:format>image/svg+xml</dc:format>
    <dc:creator>
     <cc:Agent>
      <dc:title>Matplotlib v3.10.5, https://matplotlib.org/</dc:title>
     </cc:Agent>
    </dc:creator>
   </cc:Work>
  </rdf:RDF>
 </metadata>
 <defs>
  <style type="text/css">*{stroke-linejoin: round; stroke-linecap: butt}</style>
 </defs>
 <g id="figure_1">
  <g id="patch_1">
   <path d="M 0 178.00808 
L 422.02212 178.00808 
L 422.02212 0 
L 0 0 
z
" style="fill: #ffffff"/>
  </g>
  <g id="axes_1">
   <g id="patch_2">
    <path d="M 32.398323 76.869713 
Q 54.509535 62.460733 75.12203 49.028406 
" clip-path="url(#pad3d9e04e2)" style="fill: none; stroke: #327b8c; stroke-width: 1.6; stroke-linecap: round"/>
    <path d="M 71.123185 49.485827 
L 75.12203 49.028406 
L 73.08866 52.501935 
z
" clip-path="url(#pad3d9e04e2)" style="fill: #327b8c; stroke: #327b8c; stroke-width: 1.6; stroke-linecap: round"/>
   </g>
   <g id="patch_3">
    <path d="M 94.372214 46.067776 
Q 138.613783 62.461554 181.177955 78.23377 
" clip-path="url(#pad3d9e04e2)" style="fill: none; stroke: #327b8c; stroke-width: 1.6; stroke-linecap: round"/>
    <path d="M 178.427693 75.295052 
L 181.177955 78.23377 
L 177.176824 78.670749 
z
" clip-path="url(#pad3d9e04e2)" style="fill: #327b8c; stroke: #327b8c; stroke-width: 1.6; stroke-linecap: round"/>
   </g>
   <g id="patch_4">
    <path d="M 33.64649 85.023866 
Q 60.813556 92.62989 86.258007 99.753629 
" clip-path="url(#pad3d9e04e2)" style="fill: none; stroke-dasharray: 5.92,2.56; stroke-dashoffset: 0; stroke: #858a91; stroke-width: 1.6; stroke-linecap: round"/>
    <path d="M 83.276601 97.049703 
L 86.258007 99.753629 
L 82.306023 100.516398 
z
" clip-path="url(#pad3d9e04e2)" style="fill: #858a91; stroke-dasharray: 5.92,2.56; stroke-dashoffset: 0; stroke: #858a91; stroke-width: 1.6; stroke-linecap: round"/>
   </g>
   <g id="patch_5">
    <path d="M 107.380565 100.805353 
Q 144.920188 92.630868 180.711918 84.836999 
" clip-path="url(#pad3d9e04e2)" style="fill: none; stroke-dasharray: 5.92,2.56; stroke-dashoffset: 0; stroke: #b67c55; stroke-width: 1.6; stroke-linecap: round"/>
    <path d="M 176.811364 83.844187 
L 180.711918 84.836999 
L 177.577336 87.361755 
z
" clip-path="url(#pad3d9e04e2)" style="fill: #b67c55; stroke-dasharray: 5.92,2.56; stroke-dashoffset: 0; stroke: #b67c55; stroke-width: 1.6; stroke-linecap: round"/>
   </g>
   <g id="patch_6">
    <path d="M 30.11747 90.253028 
Q 48.81934 115.176874 62.708705 141.056629 
" clip-path="url(#pad3d9e04e2)" style="fill: none; stroke-dasharray: 1.6,2.64; stroke-dashoffset: 0; stroke: #b4b8bc; stroke-width: 1.6; stroke-linecap: round"/>
    <path d="M 62.592328 137.033389 
L 62.708705 141.056629 
L 59.420287 138.735787 
z
" clip-path="url(#pad3d9e04e2)" style="fill: #b4b8bc; stroke-dasharray: 1.6,2.64; stroke-dashoffset: 0; stroke: #b4b8bc; stroke-width: 1.6; stroke-linecap: round"/>
   </g>
   <g id="patch_7">
    <path d="M 78.142382 150.628934 
Q 107.074786 148.477015 134.223263 150.496372 
" clip-path="url(#pad3d9e04e2)" style="fill: none; stroke-dasharray: 1.6,2.64; stroke-dashoffset: 0; stroke: #b4b8bc; stroke-width: 1.6; stroke-linecap: round"/>
    <path d="M 130.766699 148.434293 
L 134.223263 150.496372 
L 130.499662 152.024375 
z
" clip-path="url(#pad3d9e04e2)" style="fill: #b4b8bc; stroke-dasharray: 1.6,2.64; stroke-dashoffset: 0; stroke: #b4b8bc; stroke-width: 1.6; stroke-linecap: round"/>
   </g>
   <g id="patch_8">
    <path d="M 150.781176 142.729485 
Q 166.370571 115.089492 184.856308 91.532273 
" clip-path="url(#pad3d9e04e2)" style="fill: none; stroke-dasharray: 1.6,2.64; stroke-dashoffset: 0; stroke: #b4b8bc; stroke-width: 1.6; stroke-linecap: round"/>
    <path d="M 181.217839 93.253186 
L 184.856308 91.532273 
L 184.049958 95.475596 
z
" clip-path="url(#pad3d9e04e2)" style="fill: #b4b8bc; stroke-dasharray: 1.6,2.64; stroke-dashoffset: 0; stroke: #b4b8bc; stroke-width: 1.6; stroke-linecap: round"/>
   </g>
   <g id="patch_9">
    <path d="M 24.02087 87.774176 
C 26.084057 87.774176 28.06302 87.200434 29.521914 86.179309 
C 30.980809 85.158185 31.800522 83.773048 31.800522 82.32896 
C 31.800522 80.884872 30.980809 79.499735 29.521914 78.478611 
C 28.06302 77.457486 26.084057 76.883744 24.02087 76.883744 
C 21.957682 76.883744 19.978719 77.457486 18.519825 78.478611 
C 17.060931 79.499735 16.241217 80.884872 16.241217 82.32896 
C 16.241217 83.773048 17.060931 85.158185 18.519825 86.179309 
C 19.978719 87.200434 21.957682 87.774176 24.02087 87.774176 
z
" clip-path="url(#pad3d9e04e2)" style="fill: #ffffff; stroke: #4f5964; stroke-linejoin: miter"/>
   </g>
   <g id="patch_10">
    <path d="M 84.996522 48.038816 
C 87.05971 48.038816 89.038672 47.465074 90.497567 46.443949 
C 91.956461 45.422825 92.776174 44.037688 92.776174 42.5936 
C 92.776174 41.149512 91.956461 39.764375 90.497567 38.743251 
C 89.038672 37.722126 87.05971 37.148384 84.996522 37.148384 
C 82.933334 37.148384 80.954371 37.722126 79.495477 38.743251 
C 78.036583 39.764375 77.21687 41.149512 77.21687 42.5936 
C 77.21687 44.037688 78.036583 45.422825 79.495477 46.443949 
C 80.954371 47.465074 82.933334 48.038816 84.996522 48.038816 
z
" clip-path="url(#pad3d9e04e2)" style="fill: #ffffff; stroke: #4f5964; stroke-linejoin: miter"/>
   </g>
   <g id="patch_11">
    <path d="M 192.229565 87.774176 
C 194.292753 87.774176 196.271716 87.200434 197.73061 86.179309 
C 199.189504 85.158185 200.009217 83.773048 200.009217 82.32896 
C 200.009217 80.884872 199.189504 79.499735 197.73061 78.478611 
C 196.271716 77.457486 194.292753 76.883744 192.229565 76.883744 
C 190.166377 76.883744 188.187415 77.457486 186.72852 78.478611 
C 185.269626 79.499735 184.449913 80.884872 184.449913 82.32896 
C 184.449913 83.773048 185.269626 85.158185 186.72852 86.179309 
C 188.187415 87.200434 190.166377 87.774176 192.229565 87.774176 
z
" clip-path="url(#pad3d9e04e2)" style="fill: #ffffff; stroke: #4f5964; stroke-linejoin: miter"/>
   </g>
   <g id="patch_12">
    <path d="M 97.612174 108.377696 
C 99.675362 108.377696 101.654325 107.803954 103.113219 106.782829 
C 104.572113 105.761705 105.391826 104.376568 105.391826 102.93248 
C 105.391826 101.488392 104.572113 100.103255 103.113219 99.082131 
C 101.654325 98.061006 99.675362 97.487264 97.612174 97.487264 
C 95.548986 97.487264 93.570023 98.061006 92.111129 99.082131 
C 90.652235 100.103255 89.832522 101.488392 89.832522 102.93248 
C 89.832522 104.376568 90.652235 105.761705 92.111129 106.782829 
C 93.570023 107.803954 95.548986 108.377696 97.612174 108.377696 
z
" clip-path="url(#pad3d9e04e2)" style="fill: #ffffff; stroke: #4f5964; stroke-linejoin: miter"/>
   </g>
   <g id="patch_13">
    <path d="M 68.175652 156.943136 
C 70.23884 156.943136 72.217803 156.369394 73.676697 155.348269 
C 75.135591 154.327145 75.955304 152.942008 75.955304 151.49792 
C 75.955304 150.053832 75.135591 148.668695 73.676697 147.647571 
C 72.217803 146.626446 70.23884 146.052704 68.175652 146.052704 
C 66.112464 146.052704 64.133502 146.626446 62.674607 147.647571 
C 61.215713 148.668695 60.396 150.053832 60.396 151.49792 
C 60.396 152.942008 61.215713 154.327145 62.674607 155.348269 
C 64.133502 156.369394 66.112464 156.943136 68.175652 156.943136 
z
" clip-path="url(#pad3d9e04e2)" style="fill: #ffffff; stroke: #4f5964; stroke-linejoin: miter"/>
   </g>
   <g id="patch_14">
    <path d="M 145.972174 156.943136 
C 148.035362 156.943136 150.014325 156.369394 151.473219 155.348269 
C 152.932113 154.327145 153.751826 152.942008 153.751826 151.49792 
C 153.751826 150.053832 152.932113 148.668695 151.473219 147.647571 
C 150.014325 146.626446 148.035362 146.052704 145.972174 146.052704 
C 143.908986 146.052704 141.930023 146.626446 140.471129 147.647571 
C 139.012235 148.668695 138.192522 150.053832 138.192522 151.49792 
C 138.192522 152.942008 139.012235 154.327145 140.471129 155.348269 
C 141.930023 156.369394 143.908986 156.943136 145.972174 156.943136 
z
" clip-path="url(#pad3d9e04e2)" style="fill: #ffffff; stroke: #4f5964; stroke-linejoin: miter"/>
   </g>
   <g id="text_1">
    <text style="font-weight: 700; font-size: 8px; font-family: 'TeX Gyre Heros', sans-serif; text-anchor: start" x="7.2" y="13.16" transform="rotate(-0 7.2 13.16)">a  Complete paths and actual negative sampling</text>
   </g>
   <g id="text_2">
    <text style="font-size: 9px; font-family: 'TeX Gyre Heros', sans-serif; text-anchor: middle" x="24.02087" y="84.628882" transform="rotate(-0 24.02087 84.628882)">s</text>
   </g>
   <g id="text_3">
    <text style="font-size: 9px; font-family: 'TeX Gyre Heros', sans-serif; text-anchor: middle" x="84.996522" y="44.893522" transform="rotate(-0 84.996522 44.893522)">x</text>
   </g>
   <g id="text_4">
    <text style="font-size: 9px; font-family: 'TeX Gyre Heros', sans-serif; text-anchor: middle" x="192.229565" y="84.628882" transform="rotate(-0 192.229565 84.628882)">a</text>
   </g>
   <g id="text_5">
    <text style="font-size: 9px; font-family: 'TeX Gyre Heros', sans-serif; text-anchor: middle" x="97.612174" y="105.232402" transform="rotate(-0 97.612174 105.232402)">y</text>
   </g>
   <g id="text_6">
    <text style="font-size: 9px; font-family: 'TeX Gyre Heros', sans-serif; text-anchor: middle" x="68.175652" y="153.797842" transform="rotate(-0 68.175652 153.797842)">w</text>
   </g>
   <g id="text_7">
    <text style="font-size: 9px; font-family: 'TeX Gyre Heros', sans-serif; text-anchor: middle" x="145.972174" y="153.797842" transform="rotate(-0 145.972174 153.797842)">z</text>
   </g>
   <g id="text_8">
    <text style="font-size: 8px; font-family: 'TeX Gyre Heros', sans-serif; text-anchor: middle; fill: #327b8c" x="95.509565" y="23.46176" transform="rotate(-0 95.509565 23.46176)">selected positive path</text>
   </g>
   <g id="text_9">
    <!-- sampled PCN: y $\to$ a -->
    <g style="fill: #b67c55" transform="translate(89.348478 74.472287)">
     <text>
      <tspan x="0" y="-0.4375" style="font-size: 7px; font-family: 'TeX Gyre Heros'; fill: #b67c55">s</tspan>
      <tspan x="3.5" y="-0.4375" style="font-size: 7px; font-family: 'TeX Gyre Heros'; fill: #b67c55">a</tspan>
      <tspan x="7.391998" y="-0.4375" style="font-size: 7px; font-family: 'TeX Gyre Heros'; fill: #b67c55">m</tspan>
      <tspan x="13.222992" y="-0.4375" style="font-size: 7px; font-family: 'TeX Gyre Heros'; fill: #b67c55">p</tspan>
      <tspan x="17.11499" y="-0.4375" style="font-size: 7px; font-family: 'TeX Gyre Heros'; fill: #b67c55">l</tspan>
      <tspan x="18.668976" y="-0.4375" style="font-size: 7px; font-family: 'TeX Gyre Heros'; fill: #b67c55">e</tspan>
      <tspan x="22.560974" y="-0.4375" style="font-size: 7px; font-family: 'TeX Gyre Heros'; fill: #b67c55">d</tspan>
      <tspan x="26.452972" y="-0.4375" style="font-size: 7px; font-family: 'TeX Gyre Heros'; fill: #b67c55"> </tspan>
      <tspan x="28.398972" y="-0.4375" style="font-size: 7px; font-family: 'TeX Gyre Heros'; fill: #b67c55">P</tspan>
      <tspan x="33.067963" y="-0.4375" style="font-size: 7px; font-family: 'TeX Gyre Heros'; fill: #b67c55">C</tspan>
      <tspan x="38.121948" y="-0.4375" style="font-size: 7px; font-family: 'TeX Gyre Heros'; fill: #b67c55">N</tspan>
      <tspan x="43.175934" y="-0.4375" style="font-size: 7px; font-family: 'TeX Gyre Heros'; fill: #b67c55">:</tspan>
      <tspan x="45.121933" y="-0.4375" style="font-size: 7px; font-family: 'TeX Gyre Heros'; fill: #b67c55"> </tspan>
      <tspan x="47.067932" y="-0.4375" style="font-size: 7px; font-family: 'TeX Gyre Heros'; fill: #b67c55">y</tspan>
      <tspan x="50.567932" y="-0.4375" style="font-size: 7px; font-family: 'TeX Gyre Heros'; fill: #b67c55"> </tspan>
      <tspan x="61.106705" y="-0.4375" style="font-size: 7px; font-family: 'TeX Gyre Heros'; fill: #b67c55"> </tspan>
      <tspan x="63.052704" y="-0.4375" style="font-size: 7px; font-family: 'TeX Gyre Heros'; fill: #b67c55">a</tspan>
      <tspan x="53.877701" y="-0.4375" style="font-size: 7px; font-family: 'DejaVu Sans'; fill: #b67c55">→</tspan>
     </text>
    </g>
    <text style="font-size: 7px; font-family: 'TeX Gyre Heros', sans-serif; fill: #b67c55" transform="translate(103.090353 82.136412)">1 + 1 + 0 = 2</text>
   </g>
   <g id="text_10">
    <!-- detour: z $\to$ a is not PCN (2 + 1 &gt; 2) -->
    <g style="fill: #63686f" transform="translate(49.552826 169.15808)">
     <text>
      <tspan x="0" y="-0.109375" style="font-size: 7.5px; font-family: 'TeX Gyre Heros'; fill: #63686f">d</tspan>
      <tspan x="4.169983" y="-0.109375" style="font-size: 7.5px; font-family: 'TeX Gyre Heros'; fill: #63686f">e</tspan>
      <tspan x="8.339966" y="-0.109375" style="font-size: 7.5px; font-family: 'TeX Gyre Heros'; fill: #63686f">t</tspan>
      <tspan x="10.424957" y="-0.109375" style="font-size: 7.5px; font-family: 'TeX Gyre Heros'; fill: #63686f">o</tspan>
      <tspan x="14.59494" y="-0.109375" style="font-size: 7.5px; font-family: 'TeX Gyre Heros'; fill: #63686f">u</tspan>
      <tspan x="18.764923" y="-0.109375" style="font-size: 7.5px; font-family: 'TeX Gyre Heros'; fill: #63686f">r</tspan>
      <tspan x="21.262421" y="-0.109375" style="font-size: 7.5px; font-family: 'TeX Gyre Heros'; fill: #63686f">:</tspan>
      <tspan x="23.347412" y="-0.109375" style="font-size: 7.5px; font-family: 'TeX Gyre Heros'; fill: #63686f"> </tspan>
      <tspan x="25.432404" y="-0.109375" style="font-size: 7.5px; font-family: 'TeX Gyre Heros'; fill: #63686f">z</tspan>
      <tspan x="29.182388" y="-0.109375" style="font-size: 7.5px; font-family: 'TeX Gyre Heros'; fill: #63686f"> </tspan>
      <tspan x="40.473923" y="-0.109375" style="font-size: 7.5px; font-family: 'TeX Gyre Heros'; fill: #63686f"> </tspan>
      <tspan x="42.558914" y="-0.109375" style="font-size: 7.5px; font-family: 'TeX Gyre Heros'; fill: #63686f">a</tspan>
      <tspan x="46.728897" y="-0.109375" style="font-size: 7.5px; font-family: 'TeX Gyre Heros'; fill: #63686f"> </tspan>
      <tspan x="48.813889" y="-0.109375" style="font-size: 7.5px; font-family: 'TeX Gyre Heros'; fill: #63686f">i</tspan>
      <tspan x="50.478882" y="-0.109375" style="font-size: 7.5px; font-family: 'TeX Gyre Heros'; fill: #63686f">s</tspan>
      <tspan x="54.228867" y="-0.109375" style="font-size: 7.5px; font-family: 'TeX Gyre Heros'; fill: #63686f"> </tspan>
      <tspan x="56.313858" y="-0.109375" style="font-size: 7.5px; font-family: 'TeX Gyre Heros'; fill: #63686f">n</tspan>
      <tspan x="60.483841" y="-0.109375" style="font-size: 7.5px; font-family: 'TeX Gyre Heros'; fill: #63686f">o</tspan>
      <tspan x="64.653824" y="-0.109375" style="font-size: 7.5px; font-family: 'TeX Gyre Heros'; fill: #63686f">t</tspan>
      <tspan x="66.738815" y="-0.109375" style="font-size: 7.5px; font-family: 'TeX Gyre Heros'; fill: #63686f"> </tspan>
      <tspan x="68.823807" y="-0.109375" style="font-size: 7.5px; font-family: 'TeX Gyre Heros'; fill: #63686f">P</tspan>
      <tspan x="73.826294" y="-0.109375" style="font-size: 7.5px; font-family: 'TeX Gyre Heros'; fill: #63686f">C</tspan>
      <tspan x="79.241287" y="-0.109375" style="font-size: 7.5px; font-family: 'TeX Gyre Heros'; fill: #63686f">N</tspan>
      <tspan x="84.656281" y="-0.109375" style="font-size: 7.5px; font-family: 'TeX Gyre Heros'; fill: #63686f"> </tspan>
      <tspan x="86.741272" y="-0.109375" style="font-size: 7.5px; font-family: 'TeX Gyre Heros'; fill: #63686f">(</tspan>
      <tspan x="89.23877" y="-0.109375" style="font-size: 7.5px; font-family: 'TeX Gyre Heros'; fill: #63686f">2</tspan>
      <tspan x="93.408752" y="-0.109375" style="font-size: 7.5px; font-family: 'TeX Gyre Heros'; fill: #63686f"> </tspan>
      <tspan x="95.493744" y="-0.109375" style="font-size: 7.5px; font-family: 'TeX Gyre Heros'; fill: #63686f">+</tspan>
      <tspan x="99.873734" y="-0.109375" style="font-size: 7.5px; font-family: 'TeX Gyre Heros'; fill: #63686f"> </tspan>
      <tspan x="101.958725" y="-0.109375" style="font-size: 7.5px; font-family: 'TeX Gyre Heros'; fill: #63686f">1</tspan>
      <tspan x="106.128708" y="-0.109375" style="font-size: 7.5px; font-family: 'TeX Gyre Heros'; fill: #63686f"> </tspan>
      <tspan x="108.213699" y="-0.109375" style="font-size: 7.5px; font-family: 'TeX Gyre Heros'; fill: #63686f">&gt;</tspan>
      <tspan x="112.593689" y="-0.109375" style="font-size: 7.5px; font-family: 'TeX Gyre Heros'; fill: #63686f"> </tspan>
      <tspan x="114.67868" y="-0.109375" style="font-size: 7.5px; font-family: 'TeX Gyre Heros'; fill: #63686f">2</tspan>
      <tspan x="118.848663" y="-0.109375" style="font-size: 7.5px; font-family: 'TeX Gyre Heros'; fill: #63686f">)</tspan>
      <tspan x="32.728561" y="-0.109375" style="font-size: 7.5px; font-family: 'DejaVu Sans'; fill: #63686f">→</tspan>
     </text>
    </g>
   </g>
   <g id="text_11">
    <text style="font-size: 7px; font-family: 'TeX Gyre Heros', sans-serif; text-anchor: start" x="15.610435" y="61.72544" transform="rotate(-0 15.610435 61.72544)">topic</text>
   </g>
   <g id="text_12">
    <text style="font-size: 7px; font-family: 'TeX Gyre Heros', sans-serif; text-anchor: start" x="192.229565" y="61.72544" transform="rotate(-0 192.229565 61.72544)">answer</text>
   </g>
  </g>
  <g id="axes_2">
   <g id="patch_15">
    <path d="M 250.455652 58.78208 
L 405.725217 58.78208 
Q 408.151304 58.78208 408.151304 56.57456 
L 408.151304 40.38608 
Q 408.151304 38.17856 405.725217 38.17856 
L 250.455652 38.17856 
Q 248.029565 38.17856 248.029565 40.38608 
L 248.029565 56.57456 
Q 248.029565 58.78208 250.455652 58.78208 
z
" clip-path="url(#p28381db6ef)" style="fill: #ffffff; stroke: #63758a; stroke-linejoin: miter"/>
   </g>
   <g id="patch_16">
    <path d="M 250.455652 80.85728 
L 405.725217 80.85728 
Q 408.151304 80.85728 408.151304 78.64976 
L 408.151304 62.46128 
Q 408.151304 60.25376 405.725217 60.25376 
L 250.455652 60.25376 
Q 248.029565 60.25376 248.029565 62.46128 
L 248.029565 78.64976 
Q 248.029565 80.85728 250.455652 80.85728 
z
" clip-path="url(#p28381db6ef)" style="fill: #ffffff; stroke: #a6aab0; stroke-linejoin: miter"/>
   </g>
   <g id="patch_17">
    <path d="M 250.455652 102.93248 
L 405.725217 102.93248 
Q 408.151304 102.93248 408.151304 100.72496 
L 408.151304 84.53648 
Q 408.151304 82.32896 405.725217 82.32896 
L 250.455652 82.32896 
Q 248.029565 82.32896 248.029565 84.53648 
L 248.029565 100.72496 
Q 248.029565 102.93248 250.455652 102.93248 
z
" clip-path="url(#p28381db6ef)" style="fill: #ffffff; stroke: #327b8c; stroke-linejoin: miter"/>
   </g>
   <g id="patch_18">
    <path d="M 250.455652 125.00768 
L 405.725217 125.00768 
Q 408.151304 125.00768 408.151304 122.80016 
L 408.151304 106.61168 
Q 408.151304 104.40416 405.725217 104.40416 
L 250.455652 104.40416 
Q 248.029565 104.40416 248.029565 106.61168 
L 248.029565 122.80016 
Q 248.029565 125.00768 250.455652 125.00768 
z
" clip-path="url(#p28381db6ef)" style="fill: #ffffff; stroke: #b67c55; stroke-linejoin: miter"/>
   </g>
   <g id="patch_19">
    <path d="M 250.455652 165.47888 
L 405.725217 165.47888 
Q 408.151304 165.47888 408.151304 163.27136 
L 408.151304 145.6112 
Q 408.151304 143.40368 405.725217 143.40368 
L 250.455652 143.40368 
Q 248.029565 143.40368 248.029565 145.6112 
L 248.029565 163.27136 
Q 248.029565 165.47888 250.455652 165.47888 
z
" clip-path="url(#p28381db6ef)" style="fill: #eef3f5; stroke: #63758a; stroke-linejoin: miter"/>
   </g>
   <g id="text_13">
    <text style="font-weight: 700; font-size: 8px; font-family: 'TeX Gyre Heros', sans-serif; text-anchor: start" x="247.22087" y="13.16" transform="rotate(-0 247.22087 13.16)">b  Supervision changes; inference is shared</text>
   </g>
   <g id="text_14">
    <text style="font-size: 7.5px; font-family: 'TeX Gyre Heros', sans-serif; text-anchor: middle" x="328.090435" y="27.8768" transform="rotate(-0 328.090435 27.8768)">Same training candidates and MLP</text>
   </g>
   <g id="text_15">
    <text style="font-weight: 700; font-size: 7.2px; font-family: 'TeX Gyre Heros', sans-serif; text-anchor: start; fill: #63758a" x="255.307826" y="50.377632" transform="rotate(-0 255.307826 50.377632)">Original</text>
   </g>
   <g id="text_16">
    <text style="font-size: 7px; font-family: 'TeX Gyre Heros', sans-serif; text-anchor: end" x="405.725217" y="50.269148" transform="rotate(-0 405.725217 50.269148)">y = 0; w = 1</text>
   </g>
   <g id="text_17">
    <text style="font-weight: 700; font-size: 7.2px; font-family: 'TeX Gyre Heros', sans-serif; text-anchor: start; fill: #a6aab0" x="255.307826" y="72.395457" transform="rotate(-0 255.307826 72.395457)">Random Mask</text>
   </g>
   <g id="text_18">
    <text style="font-size: 7px; font-family: 'TeX Gyre Heros', sans-serif; text-anchor: end" x="405.725217" y="72.344348" transform="rotate(-0 405.725217 72.344348)">equal-count random w = 0</text>
   </g>
   <g id="text_19">
    <text style="font-weight: 700; font-size: 7.2px; font-family: 'TeX Gyre Heros', sans-serif; text-anchor: start; fill: #327b8c" x="255.307826" y="94.470657" transform="rotate(-0 255.307826 94.470657)">PCN Mask</text>
   </g>
   <g id="text_20">
    <text style="font-size: 7px; font-family: 'TeX Gyre Heros', sans-serif; text-anchor: end" x="405.725217" y="94.482439" transform="rotate(-0 405.725217 94.482439)">PCN: y = 0; w = 0</text>
   </g>
   <g id="text_21">
    <text style="font-weight: 700; font-size: 7.2px; font-family: 'TeX Gyre Heros', sans-serif; text-anchor: start; fill: #b67c55" x="255.307826" y="116.545857" transform="rotate(-0 255.307826 116.545857)">Positive Relabel</text>
   </g>
   <g id="text_22">
    <text style="font-size: 7px; font-family: 'TeX Gyre Heros', sans-serif; text-anchor: end" x="405.725217" y="116.557639" transform="rotate(-0 405.725217 116.557639)">PCN: y = 1; w = 1</text>
   </g>
   <g id="text_23">
    <text style="font-size: 7.5px; font-family: 'TeX Gyre Heros', sans-serif; text-anchor: middle" x="328.090435" y="136.78112" transform="rotate(-0 328.090435 136.78112)">Training answers identify PCN only</text>
   </g>
   <g id="text_24">
    <!-- Inference: q + topic $\to$ candidates $\to$ rank -->
    <g transform="translate(261.975435 156.26128)">
     <text>
      <tspan x="0" y="-0.546875" style="font-size: 7px; font-family: 'TeX Gyre Heros'">I</tspan>
      <tspan x="1.945999" y="-0.546875" style="font-size: 7px; font-family: 'TeX Gyre Heros'">n</tspan>
      <tspan x="5.837997" y="-0.546875" style="font-size: 7px; font-family: 'TeX Gyre Heros'">f</tspan>
      <tspan x="7.783997" y="-0.546875" style="font-size: 7px; font-family: 'TeX Gyre Heros'">e</tspan>
      <tspan x="11.675995" y="-0.546875" style="font-size: 7px; font-family: 'TeX Gyre Heros'">r</tspan>
      <tspan x="14.006989" y="-0.546875" style="font-size: 7px; font-family: 'TeX Gyre Heros'">e</tspan>
      <tspan x="17.898987" y="-0.546875" style="font-size: 7px; font-family: 'TeX Gyre Heros'">n</tspan>
      <tspan x="21.790985" y="-0.546875" style="font-size: 7px; font-family: 'TeX Gyre Heros'">c</tspan>
      <tspan x="25.290985" y="-0.546875" style="font-size: 7px; font-family: 'TeX Gyre Heros'">e</tspan>
      <tspan x="29.182983" y="-0.546875" style="font-size: 7px; font-family: 'TeX Gyre Heros'">:</tspan>
      <tspan x="31.128983" y="-0.546875" style="font-size: 7px; font-family: 'TeX Gyre Heros'"> </tspan>
      <tspan x="33.074982" y="-0.546875" style="font-size: 7px; font-family: 'TeX Gyre Heros'">q</tspan>
      <tspan x="36.96698" y="-0.546875" style="font-size: 7px; font-family: 'TeX Gyre Heros'"> </tspan>
      <tspan x="38.912979" y="-0.546875" style="font-size: 7px; font-family: 'TeX Gyre Heros'">+</tspan>
      <tspan x="43.000977" y="-0.546875" style="font-size: 7px; font-family: 'TeX Gyre Heros'"> </tspan>
      <tspan x="44.946976" y="-0.546875" style="font-size: 7px; font-family: 'TeX Gyre Heros'">t</tspan>
      <tspan x="46.892975" y="-0.546875" style="font-size: 7px; font-family: 'TeX Gyre Heros'">o</tspan>
      <tspan x="50.784973" y="-0.546875" style="font-size: 7px; font-family: 'TeX Gyre Heros'">p</tspan>
      <tspan x="54.676971" y="-0.546875" style="font-size: 7px; font-family: 'TeX Gyre Heros'">i</tspan>
      <tspan x="56.230957" y="-0.546875" style="font-size: 7px; font-family: 'TeX Gyre Heros'">c</tspan>
      <tspan x="59.730957" y="-0.546875" style="font-size: 7px; font-family: 'TeX Gyre Heros'"> </tspan>
      <tspan x="70.26973" y="-0.546875" style="font-size: 7px; font-family: 'TeX Gyre Heros'"> </tspan>
      <tspan x="72.215729" y="-0.546875" style="font-size: 7px; font-family: 'TeX Gyre Heros'">c</tspan>
      <tspan x="75.715729" y="-0.546875" style="font-size: 7px; font-family: 'TeX Gyre Heros'">a</tspan>
      <tspan x="79.607727" y="-0.546875" style="font-size: 7px; font-family: 'TeX Gyre Heros'">n</tspan>
      <tspan x="83.499725" y="-0.546875" style="font-size: 7px; font-family: 'TeX Gyre Heros'">d</tspan>
      <tspan x="87.391724" y="-0.546875" style="font-size: 7px; font-family: 'TeX Gyre Heros'">i</tspan>
      <tspan x="88.945709" y="-0.546875" style="font-size: 7px; font-family: 'TeX Gyre Heros'">d</tspan>
      <tspan x="92.837708" y="-0.546875" style="font-size: 7px; font-family: 'TeX Gyre Heros'">a</tspan>
      <tspan x="96.729706" y="-0.546875" style="font-size: 7px; font-family: 'TeX Gyre Heros'">t</tspan>
      <tspan x="98.675705" y="-0.546875" style="font-size: 7px; font-family: 'TeX Gyre Heros'">e</tspan>
      <tspan x="102.567703" y="-0.546875" style="font-size: 7px; font-family: 'TeX Gyre Heros'">s</tspan>
      <tspan x="106.067703" y="-0.546875" style="font-size: 7px; font-family: 'TeX Gyre Heros'"> </tspan>
      <tspan x="116.606476" y="-0.546875" style="font-size: 7px; font-family: 'TeX Gyre Heros'"> </tspan>
      <tspan x="118.552475" y="-0.546875" style="font-size: 7px; font-family: 'TeX Gyre Heros'">r</tspan>
      <tspan x="120.883469" y="-0.546875" style="font-size: 7px; font-family: 'TeX Gyre Heros'">a</tspan>
      <tspan x="124.775467" y="-0.546875" style="font-size: 7px; font-family: 'TeX Gyre Heros'">n</tspan>
      <tspan x="128.667465" y="-0.546875" style="font-size: 7px; font-family: 'TeX Gyre Heros'">k</tspan>
      <tspan x="63.040726" y="-0.546875" style="font-size: 7px; font-family: 'DejaVu Sans'">→</tspan>
      <tspan x="109.377472" y="-0.546875" style="font-size: 7px; font-family: 'DejaVu Sans'">→</tspan>
     </text>
    </g>
   </g>
  </g>
 </g>
 <defs>
  <clipPath id="pad3d9e04e2">
   <rect x="7.2" y="19.04672" width="210.26087" height="147.168"/>
  </clipPath>
  <clipPath id="p28381db6ef">
   <rect x="247.22087" y="19.04672" width="161.73913" height="147.168"/>
  </clipPath>
 </defs>
</svg>
